# xmcd CD database file
#
# Track frame offsets:
#	150
#	20027
#	38102
#	74633
#	92583
#	112123
#	143667
#	170420
#	193643
#	226361
#	245980
#	284689
#
# Disc length: 4012 seconds
#
# Revision: 0
# Processed by: cddbd v1.5PL3 Copyright (c) Steve Scherf et al.
# Submitted via: CDex 1.51
#
DISCID=b70faa0c
DTITLE=Jim Love and The Blue Groove - Gather 'Round
DYEAR=2003
DGENRE=Jazz
TTITLE0=Bite the Bullet
TTITLE1=The Blue Groove
TTITLE2=Mayan Blues
TTITLE3=Split Hairs
TTITLE4=Sweet Attitude
TTITLE5=Parapeat
TTITLE6=Bricolage
TTITLE7=Tempest Reign
TTITLE8=Johannesburg
TTITLE9=Sunday School
TTITLE10=There's No Sound
TTITLE11=Ready For The Action
EXTD=YEAR: 2003
EXTT0=
EXTT1=
EXTT2=
EXTT3=
EXTT4=
EXTT5=
EXTT6=
EXTT7=
EXTT8=
EXTT9=
EXTT10=
EXTT11=
PLAYORDER=
